# xmcd CD database file
#
# Track frame offsets:
#	150
#	13615
#	30373
#	47768
#	62622
#	77327
#	97851
#	111191
#	128679
#	140059
#	155309
#	169681
#	184000
#	197747
#
# Disc length: 2916 seconds
#
# Revision: 0
# Processed by: cddbd v1.5.2PL0 Copyright (c) Steve Scherf et al.
# Submitted via: CDex 1.51
#
DISCID=a60b620e
DTITLE=Cheryl Lescom - High Heeled Blues
DYEAR=2006
DGENRE=Blues
TTITLE0=High Heeled Blues
TTITLE1=Good Day For The Blues
TTITLE2=Heartache
TTITLE3=Loving Arms
TTITLE4=Get On Up
TTITLE5=Queen Bee
TTITLE6=Beg Borrow And Steal
TTITLE7=Drown In My Own Tears
TTITLE8=Walk Out The Door If You Wanna
TTITLE9=Shine On
TTITLE10=If You Would Love Me Again
TTITLE11=Firehall
TTITLE12=I Can't Stand It
TTITLE13=Baby's Crying
EXTD=YEAR: 2006
EXTT0=
EXTT1=
EXTT2=
EXTT3=
EXTT4=
EXTT5=
EXTT6=
EXTT7=
EXTT8=
EXTT9=
EXTT10=
EXTT11=
EXTT12=
EXTT13=
PLAYORDER=
